<svg width="44" height="44" viewBox="0 0 44 44" version="1.1" xmlns="http://www.w3.org/2000/svg" xmlns:xlink="http://www.w3.org/1999/xlink">
<title>Ellipse</title>
<desc>Created using Figma</desc>
<g id="Canvas" transform="matrix(2 0 0 2 -7132 -4694)">
<g id="Ellipse">
<use xlink:href="#path0_stroke" transform="matrix(0.707106 0.707107 -0.707106 0.707107 3579 2344.71)" fill="#DADADC"/>
</g>
</g>
<defs>
<path id="path0_stroke" d="M 7 24L 7 25L 9 25L 9 24L 7 24ZM 15 8C 15 11.866 11.866 15 8 15L 8 17C 12.9706 17 17 12.9706 17 8L 15 8ZM 8 15C 4.13401 15 1 11.866 1 8L -1 8C -1 12.9706 3.02944 17 8 17L 8 15ZM 1 8C 1 4.13401 4.13401 1 8 1L 8 -1C 3.02944 -1 -1 3.02944 -1 8L 1 8ZM 8 1C 11.866 1 15 4.13401 15 8L 17 8C 17 3.02944 12.9706 -1 8 -1L 8 1ZM 7 16L 7 24L 9 24L 9 16L 7 16Z"/>
</defs>
</svg>
